<svg width="493" height="202" viewBox="0 0 493 202" fill="none" xmlns="http://www.w3.org/2000/svg">
<rect width="493" height="202" fill="#252525"/>
<path d="M228.68 115.32C227.48 115.32 226.493 114.973 225.72 114.28C224.973 113.56 224.6 112.68 224.6 111.64C224.6 110.573 224.973 109.68 225.72 108.96C226.493 108.24 227.48 107.88 228.68 107.88C229.853 107.88 230.813 108.24 231.56 108.96C232.333 109.68 232.72 110.573 232.72 111.64C232.72 112.68 232.333 113.56 231.56 114.28C230.813 114.973 229.853 115.32 228.68 115.32ZM228.68 99.04C227.48 99.04 226.493 98.6933 225.72 98C224.973 97.28 224.6 96.4 224.6 95.36C224.6 94.2933 224.973 93.4 225.72 92.68C226.493 91.96 227.48 91.6 228.68 91.6C229.853 91.6 230.813 91.96 231.56 92.68C232.333 93.4 232.72 94.2933 232.72 95.36C232.72 96.4 232.333 97.28 231.56 98C230.813 98.6933 229.853 99.04 228.68 99.04ZM252.087 77L241.367 122.48H234.767L245.487 77H252.087ZM270.212 77L259.492 122.48H252.892L263.612 77H270.212Z" fill="#EA7317"/>
</svg>
