<svg width="172" height="172" viewBox="0 0 172 172" fill="none" xmlns="http://www.w3.org/2000/svg">
<path d="M112.823 159.11C110.239 163.016 104.978 164.088 101.072 161.504C78.6435 146.665 70.594 118.246 80.6024 94.318H155.688L112.823 159.11ZM141.306 0.791673C141.844 -0.0220541 142.94 -0.244716 143.754 0.293626C172.015 18.9906 179.926 56.9076 161.636 85.318H85.3875C85.4303 85.2528 85.4723 85.1869 85.5155 85.1218L141.306 0.791673Z" fill="#EA7317"/>
<path d="M58.6526 12.4341C61.2367 8.52821 66.4977 7.45667 70.4036 10.0405C95.4259 26.5947 102.552 60.0513 86.6731 85.3188H68.6028V77.3276L46.1028 90.3188L68.6028 103.309V94.3188H80.7386L30.1712 170.752C29.6328 171.566 28.5367 171.79 27.7229 171.251C-0.757824 152.409 -8.57145 114.046 10.2708 85.5649L58.6526 12.4341Z" fill="#FEFEFE"/>
</svg>
