<svg width="337" height="67" viewBox="0 0 337 67" fill="none" xmlns="http://www.w3.org/2000/svg">
<path d="M104.607 48.96C104.607 50.9998 105.178 52.5298 106.317 53.5498C107.457 54.5698 109.228 55.0801 111.628 55.0801C112.528 55.0801 113.368 54.9895 114.147 54.8096C114.927 54.6296 115.707 54.4197 116.487 54.1797V64.4395C115.707 64.8594 114.597 65.1897 113.157 65.4297C111.777 65.6696 110.217 65.79 108.478 65.79C102.598 65.79 98.2179 64.3796 95.3379 61.5596C92.5179 58.6796 91.1074 54.3298 91.1074 48.5098V37.7998H104.607V48.96ZM86.9053 37.7998C87.0726 39.0421 87.1592 40.332 87.1592 41.6699C87.1592 46.4097 86.0798 50.6096 83.9199 54.2695C81.82 57.8695 78.8496 60.6895 75.0098 62.7295C71.2298 64.7095 66.8193 65.7002 61.7793 65.7002C56.7395 65.7002 52.2998 64.7094 48.46 62.7295C44.68 60.6895 41.7098 57.8695 39.5498 54.2695C37.4499 50.6096 36.3994 46.4098 36.3994 41.6699C36.3994 40.3319 36.487 39.0422 36.6543 37.7998H50.8027C50.5626 38.96 50.4395 40.2198 50.4395 41.5801C50.4395 44.4 50.9498 46.8302 51.9697 48.8701C52.9897 50.85 54.3396 52.38 56.0195 53.46C57.7594 54.5399 59.6794 55.08 61.7793 55.0801C63.8792 55.0801 65.7693 54.5398 67.4492 53.46C69.1892 52.38 70.5699 50.85 71.5898 48.8701C72.6098 46.8302 73.1191 44.4 73.1191 41.5801C73.1191 40.2157 72.9979 38.9556 72.7568 37.7998H86.9053ZM225.219 54.54H247.193V64.7998H195.448C195.088 63.4798 194.819 62.0693 194.639 60.5693C194.56 59.5827 194.509 58.4922 194.482 57.2979C193.206 59.766 191.489 61.6975 189.328 63.0898C186.628 64.8297 183.328 65.7002 179.429 65.7002C174.869 65.7002 171.239 64.56 168.539 62.2803C165.839 59.9403 164.488 56.8498 164.488 53.0098C164.488 48.7498 166.079 45.33 169.259 42.75C172.271 40.2955 176.373 38.6465 181.563 37.7998H207.599V55.3496C207.599 56.5536 207.657 57.7769 207.773 59.0195V55.4395L222.295 37.7998H238.987L225.219 54.54ZM131.954 37.7998C131.838 38.5411 131.778 39.3209 131.778 40.1396V64.7998H118.278V37.7998H131.954ZM163.729 64.7998H150.229V37.7998H163.729V64.7998ZM306.79 64.7998H293.29V37.7998H306.79V64.7998ZM336.937 64.7998H322.086V49.9502H336.937V64.7998ZM185.009 45.2695C182.609 45.6295 180.838 46.29 179.698 47.25C178.558 48.21 177.988 49.5301 177.988 51.21C177.988 52.7098 178.528 53.8499 179.608 54.6299C180.688 55.4099 182.129 55.7998 183.929 55.7998C186.749 55.7998 189.149 55.0498 191.129 53.5498C193.109 51.9898 194.099 50.1893 194.099 48.1494V43.876L185.009 45.2695ZM104.607 18.8994H116.487V29.1602H104.607V32.7998H91.1074V29.1602H83.9541C83.9722 29.1903 83.9918 29.2198 84.0098 29.25C84.6758 30.3728 85.2356 31.5563 85.6904 32.7998H70.4746C70.2593 32.5354 70.0317 32.2817 69.79 32.04C67.63 29.76 64.9593 28.6201 61.7793 28.6201C58.5994 28.6202 55.8996 29.7601 53.6797 32.04C53.4495 32.283 53.232 32.5364 53.0264 32.7998H37.8691C38.324 31.5562 38.8837 30.3728 39.5498 29.25C41.7098 25.71 44.68 22.9497 48.46 20.9697C52.2998 18.9899 56.7396 18 61.7793 18C66.8793 18 71.3196 18.9897 75.0996 20.9697C78.1272 22.5308 80.6117 24.5786 82.5576 27.1094V18.8994H91.1074V8.63965L104.607 3.59961V18.8994ZM131.778 26.8223C133.174 24.4973 134.974 22.5756 137.179 21.0596C140.119 19.0197 143.719 18 147.979 18C153.078 18 156.979 19.4394 159.679 22.3193C162.198 24.9507 163.541 28.4445 163.71 32.7998H149.638C149.31 31.9665 148.848 31.2623 148.248 30.6895C146.988 29.4298 145.128 28.7999 142.669 28.7998C140.569 28.7998 138.678 29.2802 136.998 30.2402C135.859 30.9153 134.884 31.7688 134.071 32.7998H118.278V0H131.778V26.8223ZM187.259 18C193.859 18 198.899 19.4702 202.379 22.4102C205.359 24.9276 207.061 28.3909 207.489 32.7998H194.049C193.88 31.3502 193.267 30.1967 192.209 29.3398C191.009 28.2598 189.209 27.7197 186.809 27.7197C184.529 27.7197 182.698 28.1096 181.318 28.8896C179.999 29.6696 179.129 30.8098 178.709 32.3096H165.839C166.439 28.1697 168.569 24.7497 172.229 22.0498C175.889 19.3498 180.899 18 187.259 18ZM246.834 28.2598L243.1 32.7998H226.411L229.407 29.1602H208.494V18.8994H246.834V28.2598ZM306.79 32.7998H293.29V0H306.79V32.7998Z" fill="#252525"/>
<path d="M29.6992 18C34.744 18 38.6141 19.4096 41.3105 22.2275C39.2588 23.9487 37.5205 25.9712 36.0996 28.2998C33.7663 32.2331 32.5996 36.833 32.5996 42.0996C32.5996 47.3662 33.7663 52.033 36.0996 56.0996C38.2626 59.7045 41.1583 62.6027 44.7832 64.7998H31.9492V36.3594C31.9491 33.8396 31.2897 31.9494 29.9697 30.6895C28.7097 29.4295 26.8496 28.7998 24.3896 28.7998C22.2896 28.7998 20.3997 29.2802 18.7197 30.2402C17.0998 31.2002 15.8096 32.5202 14.8496 34.2002C13.9497 35.8801 13.5 37.8599 13.5 40.1396V64.7998H0V18.8994H13.2295V27.2832C14.6605 24.7497 16.55 22.6748 18.8994 21.0596C21.8393 19.0196 25.4394 18.0001 29.6992 18Z" fill="#252525"/>
<path d="M292.368 38.1282C292.512 38.897 292.619 39.6449 292.689 40.3714L259.806 49.1819C260.919 51.8065 262.34 53.7246 264.073 54.9339C266.576 56.6237 269.711 56.9638 273.479 55.9544C275.565 55.3953 277.268 54.5662 278.589 53.4671C279.909 52.3679 280.736 50.9348 281.07 49.1682L293.328 45.8841C293.028 50.5608 291.445 54.6186 288.577 58.0579C285.752 61.4237 281.587 63.8443 276.081 65.3196C271.155 66.6395 266.61 66.8328 262.446 65.8987C258.267 64.9066 254.697 62.9436 251.737 60.01C248.835 57.0607 246.778 53.3254 245.566 48.8049C244.522 44.9079 244.308 41.2399 244.916 37.8001H257.728C257.643 38.6524 257.635 39.5594 257.699 40.5217L267.859 37.8001H292.302C292.324 37.9103 292.347 38.0197 292.368 38.1282ZM263.301 19.3616C267.879 18.1349 272.098 17.9985 275.956 18.9524C279.814 19.9063 283.113 21.7867 285.853 24.593C288.018 26.8112 289.699 29.5475 290.899 32.8001H276.452C275.601 31.3241 274.55 30.2371 273.296 29.5413C271.149 28.253 268.598 28.0052 265.643 28.7971C262.923 29.5258 260.877 30.8605 259.504 32.8001H246.454C247.644 30.1256 249.349 27.749 251.574 25.6721C254.639 22.7388 258.548 20.635 263.301 19.3616Z" fill="#EA7317"/>
</svg>
